<svg xmlns="http://www.w3.org/2000/svg" viewBox="0 0 800 158" preserveAspectRatio="xMidYMid meet">
<style>@keyframes cf{from{opacity:0}to{opacity:1}}@keyframes cp{0%{opacity:0;transform-box:fill-box;transform-origin:center;transform:scale(.88)}65%{opacity:1;transform-box:fill-box;transform-origin:center;transform:scale(1.06)}100%{opacity:1;transform-box:fill-box;transform-origin:center;transform:scale(1)}}@keyframes caretBlink{0%,100%{opacity:1}50%{opacity:0}}@keyframes fadeIn{from{opacity:0}to{opacity:1}}.ce{animation:cf .18s ease-out both}.ca{animation:cp .22s ease-out both}.cr{animation:caretBlink .5s 3.4s step-start 3 forwards}.lbl{animation:fadeIn .3s .1s ease-out both}.hdr{animation:fadeIn .35s 0s ease-out both}</style>
<rect class="hdr" x=".5" y=".5" width="799" height="157" rx="7" fill="#0f0e0c" stroke="#2d2820" stroke-width="1"/>
<text class="lbl" x="14" y="20" font-family="'Courier New', Courier, monospace" font-size="12" fill="#e8812b">// contribution graph</text>
<text class="cr" x="166" y="20" font-family="'Courier New', Courier, monospace" font-size="12" fill="#e8812b">&#9612;</text>
<text class="lbl" x="32" y="36" font-family="'Courier New', Courier, monospace" font-size="9" fill="#3a3328">Jan</text>
<text class="lbl" x="88" y="36" font-family="'Courier New', Courier, monospace" font-size="9" fill="#3a3328">Feb</text>
<text class="lbl" x="158" y="36" font-family="'Courier New', Courier, monospace" font-size="9" fill="#3a3328">Mar</text>
<text class="lbl" x="214" y="36" font-family="'Courier New', Courier, monospace" font-size="9" fill="#3a3328">Apr</text>
<text class="lbl" x="270" y="36" font-family="'Courier New', Courier, monospace" font-size="9" fill="#3a3328">May</text>
<text class="lbl" x="340" y="36" font-family="'Courier New', Courier, monospace" font-size="9" fill="#3a3328">Jun</text>
<text class="lbl" x="396" y="36" font-family="'Courier New', Courier, monospace" font-size="9" fill="#3a3328">Jul</text>
<text class="lbl" x="452" y="36" font-family="'Courier New', Courier, monospace" font-size="9" fill="#3a3328">Aug</text>
<text class="lbl" x="522" y="36" font-family="'Courier New', Courier, monospace" font-size="9" fill="#3a3328">Sep</text>
<text class="lbl" x="578" y="36" font-family="'Courier New', Courier, monospace" font-size="9" fill="#3a3328">Oct</text>
<text class="lbl" x="634" y="36" font-family="'Courier New', Courier, monospace" font-size="9" fill="#3a3328">Nov</text>
<text class="lbl" x="704" y="36" font-family="'Courier New', Courier, monospace" font-size="9" fill="#3a3328">Dec</text>
<text class="lbl" x="28" y="66" font-family="'Courier New', Courier, monospace" font-size="9" fill="#3a3328" text-anchor="end">Mon</text>
<text class="lbl" x="28" y="94" font-family="'Courier New', Courier, monospace" font-size="9" fill="#3a3328" text-anchor="end">Wed</text>
<text class="lbl" x="28" y="122" font-family="'Courier New', Courier, monospace" font-size="9" fill="#3a3328" text-anchor="end">Fri</text>
<rect class="ce" style="animation-delay:0ms" x="32" y="44" width="11" height="11" rx="2" fill="#1e1a14"/>
<rect class="ce" style="animation-delay:0ms" x="32" y="58" width="11" height="11" rx="2" fill="#1e1a14"/>
<rect class="ce" style="animation-delay:0ms" x="32" y="72" width="11" height="11" rx="2" fill="#1e1a14"/>
<rect class="ce" style="animation-delay:0ms" x="32" y="86" width="11" height="11" rx="2" fill="#1e1a14"/>
<rect class="ce" style="animation-delay:0ms" x="32" y="100" width="11" height="11" rx="2" fill="#1e1a14"/>
<rect class="ce" style="animation-delay:0ms" x="32" y="114" width="11" height="11" rx="2" fill="#1e1a14"/>
<rect class="ce" style="animation-delay:0ms" x="32" y="128" width="11" height="11" rx="2" fill="#1e1a14"/>
<rect class="ce" style="animation-delay:14ms" x="46" y="44" width="11" height="11" rx="2" fill="#1e1a14"/>
<rect class="ce" style="animation-delay:14ms" x="46" y="58" width="11" height="11" rx="2" fill="#1e1a14"/>
<rect class="ce" style="animation-delay:14ms" x="46" y="72" width="11" height="11" rx="2" fill="#1e1a14"/>
<rect class="ce" style="animation-delay:14ms" x="46" y="86" width="11" height="11" rx="2" fill="#1e1a14"/>
<rect class="ce" style="animation-delay:14ms" x="46" y="100" width="11" height="11" rx="2" fill="#1e1a14"/>
<rect class="ce" style="animation-delay:14ms" x="46" y="114" width="11" height="11" rx="2" fill="#1e1a14"/>
<rect class="ce" style="animation-delay:14ms" x="46" y="128" width="11" height="11" rx="2" fill="#1e1a14"/>
<rect class="ce" style="animation-delay:28ms" x="60" y="44" width="11" height="11" rx="2" fill="#1e1a14"/>
<rect class="ce" style="animation-delay:28ms" x="60" y="58" width="11" height="11" rx="2" fill="#1e1a14"/>
<rect class="ce" style="animation-delay:28ms" x="60" y="72" width="11" height="11" rx="2" fill="#1e1a14"/>
<rect class="ce" style="animation-delay:28ms" x="60" y="86" width="11" height="11" rx="2" fill="#1e1a14"/>
<rect class="ce" style="animation-delay:28ms" x="60" y="100" width="11" height="11" rx="2" fill="#1e1a14"/>
<rect class="ce" style="animation-delay:28ms" x="60" y="114" width="11" height="11" rx="2" fill="#1e1a14"/>
<rect class="ce" style="animation-delay:28ms" x="60" y="128" width="11" height="11" rx="2" fill="#1e1a14"/>
<rect class="ce" style="animation-delay:42ms" x="74" y="44" width="11" height="11" rx="2" fill="#1e1a14"/>
<rect class="ce" style="animation-delay:42ms" x="74" y="58" width="11" height="11" rx="2" fill="#1e1a14"/>
<rect class="ce" style="animation-delay:42ms" x="74" y="72" width="11" height="11" rx="2" fill="#1e1a14"/>
<rect class="ce" style="animation-delay:42ms" x="74" y="86" width="11" height="11" rx="2" fill="#1e1a14"/>
<rect class="ce" style="animation-delay:42ms" x="74" y="100" width="11" height="11" rx="2" fill="#1e1a14"/>
<rect class="ce" style="animation-delay:42ms" x="74" y="114" width="11" height="11" rx="2" fill="#1e1a14"/>
<rect class="ce" style="animation-delay:42ms" x="74" y="128" width="11" height="11" rx="2" fill="#1e1a14"/>
<rect class="ce" style="animation-delay:56ms" x="88" y="44" width="11" height="11" rx="2" fill="#1e1a14"/>
<rect class="ce" style="animation-delay:56ms" x="88" y="58" width="11" height="11" rx="2" fill="#1e1a14"/>
<rect class="ce" style="animation-delay:56ms" x="88" y="72" width="11" height="11" rx="2" fill="#1e1a14"/>
<rect class="ce" style="animation-delay:56ms" x="88" y="86" width="11" height="11" rx="2" fill="#1e1a14"/>
<rect class="ce" style="animation-delay:56ms" x="88" y="100" width="11" height="11" rx="2" fill="#1e1a14"/>
<rect class="ce" style="animation-delay:56ms" x="88" y="114" width="11" height="11" rx="2" fill="#1e1a14"/>
<rect class="ce" style="animation-delay:56ms" x="88" y="128" width="11" height="11" rx="2" fill="#1e1a14"/>
<rect class="ce" style="animation-delay:70ms" x="102" y="44" width="11" height="11" rx="2" fill="#1e1a14"/>
<rect class="ce" style="animation-delay:70ms" x="102" y="58" width="11" height="11" rx="2" fill="#1e1a14"/>
<rect class="ce" style="animation-delay:70ms" x="102" y="72" width="11" height="11" rx="2" fill="#1e1a14"/>
<rect class="ce" style="animation-delay:70ms" x="102" y="86" width="11" height="11" rx="2" fill="#1e1a14"/>
<rect class="ce" style="animation-delay:70ms" x="102" y="100" width="11" height="11" rx="2" fill="#1e1a14"/>
<rect class="ce" style="animation-delay:70ms" x="102" y="114" width="11" height="11" rx="2" fill="#1e1a14"/>
<rect class="ce" style="animation-delay:70ms" x="102" y="128" width="11" height="11" rx="2" fill="#1e1a14"/>
<rect class="ce" style="animation-delay:84ms" x="116" y="44" width="11" height="11" rx="2" fill="#1e1a14"/>
<rect class="ce" style="animation-delay:84ms" x="116" y="58" width="11" height="11" rx="2" fill="#1e1a14"/>
<rect class="ce" style="animation-delay:84ms" x="116" y="72" width="11" height="11" rx="2" fill="#1e1a14"/>
<rect class="ce" style="animation-delay:84ms" x="116" y="86" width="11" height="11" rx="2" fill="#1e1a14"/>
<rect class="ce" style="animation-delay:84ms" x="116" y="100" width="11" height="11" rx="2" fill="#1e1a14"/>
<rect class="ce" style="animation-delay:84ms" x="116" y="114" width="11" height="11" rx="2" fill="#1e1a14"/>
<rect class="ce" style="animation-delay:84ms" x="116" y="128" width="11" height="11" rx="2" fill="#1e1a14"/>
<rect class="ce" style="animation-delay:98ms" x="130" y="44" width="11" height="11" rx="2" fill="#1e1a14"/>
<rect class="ce" style="animation-delay:98ms" x="130" y="58" width="11" height="11" rx="2" fill="#1e1a14"/>
<rect class="ce" style="animation-delay:98ms" x="130" y="72" width="11" height="11" rx="2" fill="#1e1a14"/>
<rect class="ce" style="animation-delay:98ms" x="130" y="86" width="11" height="11" rx="2" fill="#1e1a14"/>
<rect class="ce" style="animation-delay:98ms" x="130" y="100" width="11" height="11" rx="2" fill="#1e1a14"/>
<rect class="ce" style="animation-delay:98ms" x="130" y="114" width="11" height="11" rx="2" fill="#1e1a14"/>
<rect class="ce" style="animation-delay:98ms" x="130" y="128" width="11" height="11" rx="2" fill="#1e1a14"/>
<rect class="ce" style="animation-delay:112ms" x="144" y="44" width="11" height="11" rx="2" fill="#1e1a14"/>
<rect class="ce" style="animation-delay:112ms" x="144" y="58" width="11" height="11" rx="2" fill="#1e1a14"/>
<rect class="ce" style="animation-delay:112ms" x="144" y="72" width="11" height="11" rx="2" fill="#1e1a14"/>
<rect class="ce" style="animation-delay:112ms" x="144" y="86" width="11" height="11" rx="2" fill="#1e1a14"/>
<rect class="ce" style="animation-delay:112ms" x="144" y="100" width="11" height="11" rx="2" fill="#1e1a14"/>
<rect class="ce" style="animation-delay:112ms" x="144" y="114" width="11" height="11" rx="2" fill="#1e1a14"/>
<rect class="ce" style="animation-delay:112ms" x="144" y="128" width="11" height="11" rx="2" fill="#1e1a14"/>
<rect class="ce" style="animation-delay:126ms" x="158" y="44" width="11" height="11" rx="2" fill="#1e1a14"/>
<rect class="ce" style="animation-delay:126ms" x="158" y="58" width="11" height="11" rx="2" fill="#1e1a14"/>
<rect class="ce" style="animation-delay:126ms" x="158" y="72" width="11" height="11" rx="2" fill="#1e1a14"/>
<rect class="ce" style="animation-delay:126ms" x="158" y="86" width="11" height="11" rx="2" fill="#1e1a14"/>
<rect class="ce" style="animation-delay:126ms" x="158" y="100" width="11" height="11" rx="2" fill="#1e1a14"/>
<rect class="ce" style="animation-delay:126ms" x="158" y="114" width="11" height="11" rx="2" fill="#1e1a14"/>
<rect class="ce" style="animation-delay:126ms" x="158" y="128" width="11" height="11" rx="2" fill="#1e1a14"/>
<rect class="ce" style="animation-delay:140ms" x="172" y="44" width="11" height="11" rx="2" fill="#1e1a14"/>
<rect class="ce" style="animation-delay:140ms" x="172" y="58" width="11" height="11" rx="2" fill="#1e1a14"/>
<rect class="ce" style="animation-delay:140ms" x="172" y="72" width="11" height="11" rx="2" fill="#1e1a14"/>
<rect class="ce" style="animation-delay:140ms" x="172" y="86" width="11" height="11" rx="2" fill="#1e1a14"/>
<rect class="ce" style="animation-delay:140ms" x="172" y="100" width="11" height="11" rx="2" fill="#1e1a14"/>
<rect class="ce" style="animation-delay:140ms" x="172" y="114" width="11" height="11" rx="2" fill="#1e1a14"/>
<rect class="ce" style="animation-delay:140ms" x="172" y="128" width="11" height="11" rx="2" fill="#1e1a14"/>
<rect class="ce" style="animation-delay:154ms" x="186" y="44" width="11" height="11" rx="2" fill="#1e1a14"/>
<rect class="ce" style="animation-delay:154ms" x="186" y="58" width="11" height="11" rx="2" fill="#1e1a14"/>
<rect class="ce" style="animation-delay:154ms" x="186" y="72" width="11" height="11" rx="2" fill="#1e1a14"/>
<rect class="ce" style="animation-delay:154ms" x="186" y="86" width="11" height="11" rx="2" fill="#1e1a14"/>
<rect class="ce" style="animation-delay:154ms" x="186" y="100" width="11" height="11" rx="2" fill="#1e1a14"/>
<rect class="ce" style="animation-delay:154ms" x="186" y="114" width="11" height="11" rx="2" fill="#1e1a14"/>
<rect class="ce" style="animation-delay:154ms" x="186" y="128" width="11" height="11" rx="2" fill="#1e1a14"/>
<rect class="ce" style="animation-delay:168ms" x="200" y="44" width="11" height="11" rx="2" fill="#1e1a14"/>
<rect class="ce" style="animation-delay:168ms" x="200" y="58" width="11" height="11" rx="2" fill="#1e1a14"/>
<rect class="ce" style="animation-delay:168ms" x="200" y="72" width="11" height="11" rx="2" fill="#1e1a14"/>
<rect class="ce" style="animation-delay:168ms" x="200" y="86" width="11" height="11" rx="2" fill="#1e1a14"/>
<rect class="ce" style="animation-delay:168ms" x="200" y="100" width="11" height="11" rx="2" fill="#1e1a14"/>
<rect class="ce" style="animation-delay:168ms" x="200" y="114" width="11" height="11" rx="2" fill="#1e1a14"/>
<rect class="ce" style="animation-delay:168ms" x="200" y="128" width="11" height="11" rx="2" fill="#1e1a14"/>
<rect class="ce" style="animation-delay:182ms" x="214" y="44" width="11" height="11" rx="2" fill="#1e1a14"/>
<rect class="ce" style="animation-delay:182ms" x="214" y="58" width="11" height="11" rx="2" fill="#1e1a14"/>
<rect class="ce" style="animation-delay:182ms" x="214" y="72" width="11" height="11" rx="2" fill="#1e1a14"/>
<rect class="ce" style="animation-delay:182ms" x="214" y="86" width="11" height="11" rx="2" fill="#1e1a14"/>
<rect class="ce" style="animation-delay:182ms" x="214" y="100" width="11" height="11" rx="2" fill="#1e1a14"/>
<rect class="ce" style="animation-delay:182ms" x="214" y="114" width="11" height="11" rx="2" fill="#1e1a14"/>
<rect class="ce" style="animation-delay:182ms" x="214" y="128" width="11" height="11" rx="2" fill="#1e1a14"/>
<rect class="ce" style="animation-delay:196ms" x="228" y="44" width="11" height="11" rx="2" fill="#1e1a14"/>
<rect class="ce" style="animation-delay:196ms" x="228" y="58" width="11" height="11" rx="2" fill="#1e1a14"/>
<rect class="ce" style="animation-delay:196ms" x="228" y="72" width="11" height="11" rx="2" fill="#1e1a14"/>
<rect class="ce" style="animation-delay:196ms" x="228" y="86" width="11" height="11" rx="2" fill="#1e1a14"/>
<rect class="ce" style="animation-delay:196ms" x="228" y="100" width="11" height="11" rx="2" fill="#1e1a14"/>
<rect class="ce" style="animation-delay:196ms" x="228" y="114" width="11" height="11" rx="2" fill="#1e1a14"/>
<rect class="ce" style="animation-delay:196ms" x="228" y="128" width="11" height="11" rx="2" fill="#1e1a14"/>
<rect class="ce" style="animation-delay:210ms" x="242" y="44" width="11" height="11" rx="2" fill="#1e1a14"/>
<rect class="ce" style="animation-delay:210ms" x="242" y="58" width="11" height="11" rx="2" fill="#1e1a14"/>
<rect class="ce" style="animation-delay:210ms" x="242" y="72" width="11" height="11" rx="2" fill="#1e1a14"/>
<rect class="ce" style="animation-delay:210ms" x="242" y="86" width="11" height="11" rx="2" fill="#1e1a14"/>
<rect class="ce" style="animation-delay:210ms" x="242" y="100" width="11" height="11" rx="2" fill="#1e1a14"/>
<rect class="ce" style="animation-delay:210ms" x="242" y="114" width="11" height="11" rx="2" fill="#1e1a14"/>
<rect class="ce" style="animation-delay:210ms" x="242" y="128" width="11" height="11" rx="2" fill="#1e1a14"/>
<rect class="ce" style="animation-delay:224ms" x="256" y="44" width="11" height="11" rx="2" fill="#1e1a14"/>
<rect class="ce" style="animation-delay:224ms" x="256" y="58" width="11" height="11" rx="2" fill="#1e1a14"/>
<rect class="ce" style="animation-delay:224ms" x="256" y="72" width="11" height="11" rx="2" fill="#1e1a14"/>
<rect class="ce" style="animation-delay:224ms" x="256" y="86" width="11" height="11" rx="2" fill="#1e1a14"/>
<rect class="ce" style="animation-delay:224ms" x="256" y="100" width="11" height="11" rx="2" fill="#1e1a14"/>
<rect class="ce" style="animation-delay:224ms" x="256" y="114" width="11" height="11" rx="2" fill="#1e1a14"/>
<rect class="ce" style="animation-delay:224ms" x="256" y="128" width="11" height="11" rx="2" fill="#1e1a14"/>
<rect class="ce" style="animation-delay:238ms" x="270" y="44" width="11" height="11" rx="2" fill="#1e1a14"/>
<rect class="ce" style="animation-delay:238ms" x="270" y="58" width="11" height="11" rx="2" fill="#1e1a14"/>
<rect class="ce" style="animation-delay:238ms" x="270" y="72" width="11" height="11" rx="2" fill="#1e1a14"/>
<rect class="ce" style="animation-delay:238ms" x="270" y="86" width="11" height="11" rx="2" fill="#1e1a14"/>
<rect class="ce" style="animation-delay:238ms" x="270" y="100" width="11" height="11" rx="2" fill="#1e1a14"/>
<rect class="ce" style="animation-delay:238ms" x="270" y="114" width="11" height="11" rx="2" fill="#1e1a14"/>
<rect class="ce" style="animation-delay:238ms" x="270" y="128" width="11" height="11" rx="2" fill="#1e1a14"/>
<rect class="ce" style="animation-delay:252ms" x="284" y="44" width="11" height="11" rx="2" fill="#1e1a14"/>
<rect class="ce" style="animation-delay:252ms" x="284" y="58" width="11" height="11" rx="2" fill="#1e1a14"/>
<rect class="ce" style="animation-delay:252ms" x="284" y="72" width="11" height="11" rx="2" fill="#1e1a14"/>
<rect class="ce" style="animation-delay:252ms" x="284" y="86" width="11" height="11" rx="2" fill="#1e1a14"/>
<rect class="ce" style="animation-delay:252ms" x="284" y="100" width="11" height="11" rx="2" fill="#1e1a14"/>
<rect class="ce" style="animation-delay:252ms" x="284" y="114" width="11" height="11" rx="2" fill="#1e1a14"/>
<rect class="ce" style="animation-delay:252ms" x="284" y="128" width="11" height="11" rx="2" fill="#1e1a14"/>
<rect class="ce" style="animation-delay:266ms" x="298" y="44" width="11" height="11" rx="2" fill="#1e1a14"/>
<rect class="ce" style="animation-delay:266ms" x="298" y="58" width="11" height="11" rx="2" fill="#1e1a14"/>
<rect class="ce" style="animation-delay:266ms" x="298" y="72" width="11" height="11" rx="2" fill="#1e1a14"/>
<rect class="ce" style="animation-delay:266ms" x="298" y="86" width="11" height="11" rx="2" fill="#1e1a14"/>
<rect class="ce" style="animation-delay:266ms" x="298" y="100" width="11" height="11" rx="2" fill="#1e1a14"/>
<rect class="ce" style="animation-delay:266ms" x="298" y="114" width="11" height="11" rx="2" fill="#1e1a14"/>
<rect class="ce" style="animation-delay:266ms" x="298" y="128" width="11" height="11" rx="2" fill="#1e1a14"/>
<rect class="ce" style="animation-delay:280ms" x="312" y="44" width="11" height="11" rx="2" fill="#1e1a14"/>
<rect class="ce" style="animation-delay:280ms" x="312" y="58" width="11" height="11" rx="2" fill="#1e1a14"/>
<rect class="ce" style="animation-delay:280ms" x="312" y="72" width="11" height="11" rx="2" fill="#1e1a14"/>
<rect class="ce" style="animation-delay:280ms" x="312" y="86" width="11" height="11" rx="2" fill="#1e1a14"/>
<rect class="ce" style="animation-delay:280ms" x="312" y="100" width="11" height="11" rx="2" fill="#1e1a14"/>
<rect class="ce" style="animation-delay:280ms" x="312" y="114" width="11" height="11" rx="2" fill="#1e1a14"/>
<rect class="ce" style="animation-delay:280ms" x="312" y="128" width="11" height="11" rx="2" fill="#1e1a14"/>
<rect class="ce" style="animation-delay:294ms" x="326" y="44" width="11" height="11" rx="2" fill="#1e1a14"/>
<rect class="ce" style="animation-delay:294ms" x="326" y="58" width="11" height="11" rx="2" fill="#1e1a14"/>
<rect class="ce" style="animation-delay:294ms" x="326" y="72" width="11" height="11" rx="2" fill="#1e1a14"/>
<rect class="ce" style="animation-delay:294ms" x="326" y="86" width="11" height="11" rx="2" fill="#1e1a14"/>
<rect class="ce" style="animation-delay:294ms" x="326" y="100" width="11" height="11" rx="2" fill="#1e1a14"/>
<rect class="ce" style="animation-delay:294ms" x="326" y="114" width="11" height="11" rx="2" fill="#1e1a14"/>
<rect class="ce" style="animation-delay:294ms" x="326" y="128" width="11" height="11" rx="2" fill="#1e1a14"/>
<rect class="ce" style="animation-delay:308ms" x="340" y="44" width="11" height="11" rx="2" fill="#1e1a14"/>
<rect class="ce" style="animation-delay:308ms" x="340" y="58" width="11" height="11" rx="2" fill="#1e1a14"/>
<rect class="ce" style="animation-delay:308ms" x="340" y="72" width="11" height="11" rx="2" fill="#1e1a14"/>
<rect class="ce" style="animation-delay:308ms" x="340" y="86" width="11" height="11" rx="2" fill="#1e1a14"/>
<rect class="ce" style="animation-delay:308ms" x="340" y="100" width="11" height="11" rx="2" fill="#1e1a14"/>
<rect class="ce" style="animation-delay:308ms" x="340" y="114" width="11" height="11" rx="2" fill="#1e1a14"/>
<rect class="ce" style="animation-delay:308ms" x="340" y="128" width="11" height="11" rx="2" fill="#1e1a14"/>
<rect class="ce" style="animation-delay:322ms" x="354" y="44" width="11" height="11" rx="2" fill="#1e1a14"/>
<rect class="ce" style="animation-delay:322ms" x="354" y="58" width="11" height="11" rx="2" fill="#1e1a14"/>
<rect class="ce" style="animation-delay:322ms" x="354" y="72" width="11" height="11" rx="2" fill="#1e1a14"/>
<rect class="ce" style="animation-delay:322ms" x="354" y="86" width="11" height="11" rx="2" fill="#1e1a14"/>
<rect class="ce" style="animation-delay:322ms" x="354" y="100" width="11" height="11" rx="2" fill="#1e1a14"/>
<rect class="ce" style="animation-delay:322ms" x="354" y="114" width="11" height="11" rx="2" fill="#1e1a14"/>
<rect class="ce" style="animation-delay:322ms" x="354" y="128" width="11" height="11" rx="2" fill="#1e1a14"/>
<rect class="ce" style="animation-delay:336ms" x="368" y="44" width="11" height="11" rx="2" fill="#1e1a14"/>
<rect class="ce" style="animation-delay:336ms" x="368" y="58" width="11" height="11" rx="2" fill="#1e1a14"/>
<rect class="ce" style="animation-delay:336ms" x="368" y="72" width="11" height="11" rx="2" fill="#1e1a14"/>
<rect class="ce" style="animation-delay:336ms" x="368" y="86" width="11" height="11" rx="2" fill="#1e1a14"/>
<rect class="ce" style="animation-delay:336ms" x="368" y="100" width="11" height="11" rx="2" fill="#1e1a14"/>
<rect class="ce" style="animation-delay:336ms" x="368" y="114" width="11" height="11" rx="2" fill="#1e1a14"/>
<rect class="ce" style="animation-delay:336ms" x="368" y="128" width="11" height="11" rx="2" fill="#1e1a14"/>
<rect class="ce" style="animation-delay:350ms" x="382" y="44" width="11" height="11" rx="2" fill="#1e1a14"/>
<rect class="ce" style="animation-delay:350ms" x="382" y="58" width="11" height="11" rx="2" fill="#1e1a14"/>
<rect class="ce" style="animation-delay:350ms" x="382" y="72" width="11" height="11" rx="2" fill="#1e1a14"/>
<rect class="ce" style="animation-delay:350ms" x="382" y="86" width="11" height="11" rx="2" fill="#1e1a14"/>
<rect class="ce" style="animation-delay:350ms" x="382" y="100" width="11" height="11" rx="2" fill="#1e1a14"/>
<rect class="ce" style="animation-delay:350ms" x="382" y="114" width="11" height="11" rx="2" fill="#1e1a14"/>
<rect class="ce" style="animation-delay:350ms" x="382" y="128" width="11" height="11" rx="2" fill="#1e1a14"/>
<rect class="ce" style="animation-delay:364ms" x="396" y="44" width="11" height="11" rx="2" fill="#1e1a14"/>
<rect class="ce" style="animation-delay:364ms" x="396" y="58" width="11" height="11" rx="2" fill="#1e1a14"/>
<rect class="ce" style="animation-delay:364ms" x="396" y="72" width="11" height="11" rx="2" fill="#1e1a14"/>
<rect class="ce" style="animation-delay:364ms" x="396" y="86" width="11" height="11" rx="2" fill="#1e1a14"/>
<rect class="ce" style="animation-delay:364ms" x="396" y="100" width="11" height="11" rx="2" fill="#1e1a14"/>
<rect class="ce" style="animation-delay:364ms" x="396" y="114" width="11" height="11" rx="2" fill="#1e1a14"/>
<rect class="ce" style="animation-delay:364ms" x="396" y="128" width="11" height="11" rx="2" fill="#1e1a14"/>
<rect class="ce" style="animation-delay:378ms" x="410" y="44" width="11" height="11" rx="2" fill="#1e1a14"/>
<rect class="ce" style="animation-delay:378ms" x="410" y="58" width="11" height="11" rx="2" fill="#1e1a14"/>
<rect class="ce" style="animation-delay:378ms" x="410" y="72" width="11" height="11" rx="2" fill="#1e1a14"/>
<rect class="ce" style="animation-delay:378ms" x="410" y="86" width="11" height="11" rx="2" fill="#1e1a14"/>
<rect class="ce" style="animation-delay:378ms" x="410" y="100" width="11" height="11" rx="2" fill="#1e1a14"/>
<rect class="ce" style="animation-delay:378ms" x="410" y="114" width="11" height="11" rx="2" fill="#1e1a14"/>
<rect class="ce" style="animation-delay:378ms" x="410" y="128" width="11" height="11" rx="2" fill="#1e1a14"/>
<rect class="ce" style="animation-delay:392ms" x="424" y="44" width="11" height="11" rx="2" fill="#1e1a14"/>
<rect class="ce" style="animation-delay:392ms" x="424" y="58" width="11" height="11" rx="2" fill="#1e1a14"/>
<rect class="ce" style="animation-delay:392ms" x="424" y="72" width="11" height="11" rx="2" fill="#1e1a14"/>
<rect class="ce" style="animation-delay:392ms" x="424" y="86" width="11" height="11" rx="2" fill="#1e1a14"/>
<rect class="ce" style="animation-delay:392ms" x="424" y="100" width="11" height="11" rx="2" fill="#1e1a14"/>
<rect class="ce" style="animation-delay:392ms" x="424" y="114" width="11" height="11" rx="2" fill="#1e1a14"/>
<rect class="ce" style="animation-delay:392ms" x="424" y="128" width="11" height="11" rx="2" fill="#1e1a14"/>
<rect class="ce" style="animation-delay:406ms" x="438" y="44" width="11" height="11" rx="2" fill="#1e1a14"/>
<rect class="ce" style="animation-delay:406ms" x="438" y="58" width="11" height="11" rx="2" fill="#1e1a14"/>
<rect class="ce" style="animation-delay:406ms" x="438" y="72" width="11" height="11" rx="2" fill="#1e1a14"/>
<rect class="ce" style="animation-delay:406ms" x="438" y="86" width="11" height="11" rx="2" fill="#1e1a14"/>
<rect class="ce" style="animation-delay:406ms" x="438" y="100" width="11" height="11" rx="2" fill="#1e1a14"/>
<rect class="ce" style="animation-delay:406ms" x="438" y="114" width="11" height="11" rx="2" fill="#1e1a14"/>
<rect class="ce" style="animation-delay:406ms" x="438" y="128" width="11" height="11" rx="2" fill="#1e1a14"/>
<rect class="ce" style="animation-delay:420ms" x="452" y="44" width="11" height="11" rx="2" fill="#1e1a14"/>
<rect class="ce" style="animation-delay:420ms" x="452" y="58" width="11" height="11" rx="2" fill="#1e1a14"/>
<rect class="ce" style="animation-delay:420ms" x="452" y="72" width="11" height="11" rx="2" fill="#1e1a14"/>
<rect class="ce" style="animation-delay:420ms" x="452" y="86" width="11" height="11" rx="2" fill="#1e1a14"/>
<rect class="ce" style="animation-delay:420ms" x="452" y="100" width="11" height="11" rx="2" fill="#1e1a14"/>
<rect class="ce" style="animation-delay:420ms" x="452" y="114" width="11" height="11" rx="2" fill="#1e1a14"/>
<rect class="ce" style="animation-delay:420ms" x="452" y="128" width="11" height="11" rx="2" fill="#1e1a14"/>
<rect class="ce" style="animation-delay:434ms" x="466" y="44" width="11" height="11" rx="2" fill="#1e1a14"/>
<rect class="ce" style="animation-delay:434ms" x="466" y="58" width="11" height="11" rx="2" fill="#1e1a14"/>
<rect class="ce" style="animation-delay:434ms" x="466" y="72" width="11" height="11" rx="2" fill="#1e1a14"/>
<rect class="ce" style="animation-delay:434ms" x="466" y="86" width="11" height="11" rx="2" fill="#1e1a14"/>
<rect class="ce" style="animation-delay:434ms" x="466" y="100" width="11" height="11" rx="2" fill="#1e1a14"/>
<rect class="ce" style="animation-delay:434ms" x="466" y="114" width="11" height="11" rx="2" fill="#1e1a14"/>
<rect class="ce" style="animation-delay:434ms" x="466" y="128" width="11" height="11" rx="2" fill="#1e1a14"/>
<rect class="ce" style="animation-delay:448ms" x="480" y="44" width="11" height="11" rx="2" fill="#1e1a14"/>
<rect class="ce" style="animation-delay:448ms" x="480" y="58" width="11" height="11" rx="2" fill="#1e1a14"/>
<rect class="ce" style="animation-delay:448ms" x="480" y="72" width="11" height="11" rx="2" fill="#1e1a14"/>
<rect class="ce" style="animation-delay:448ms" x="480" y="86" width="11" height="11" rx="2" fill="#1e1a14"/>
<rect class="ce" style="animation-delay:448ms" x="480" y="100" width="11" height="11" rx="2" fill="#1e1a14"/>
<rect class="ce" style="animation-delay:448ms" x="480" y="114" width="11" height="11" rx="2" fill="#1e1a14"/>
<rect class="ce" style="animation-delay:448ms" x="480" y="128" width="11" height="11" rx="2" fill="#1e1a14"/>
<rect class="ce" style="animation-delay:462ms" x="494" y="44" width="11" height="11" rx="2" fill="#1e1a14"/>
<rect class="ce" style="animation-delay:462ms" x="494" y="58" width="11" height="11" rx="2" fill="#1e1a14"/>
<rect class="ce" style="animation-delay:462ms" x="494" y="72" width="11" height="11" rx="2" fill="#1e1a14"/>
<rect class="ce" style="animation-delay:462ms" x="494" y="86" width="11" height="11" rx="2" fill="#1e1a14"/>
<rect class="ce" style="animation-delay:462ms" x="494" y="100" width="11" height="11" rx="2" fill="#1e1a14"/>
<rect class="ce" style="animation-delay:462ms" x="494" y="114" width="11" height="11" rx="2" fill="#1e1a14"/>
<rect class="ce" style="animation-delay:462ms" x="494" y="128" width="11" height="11" rx="2" fill="#1e1a14"/>
<rect class="ce" style="animation-delay:476ms" x="508" y="44" width="11" height="11" rx="2" fill="#1e1a14"/>
<rect class="ce" style="animation-delay:476ms" x="508" y="58" width="11" height="11" rx="2" fill="#1e1a14"/>
<rect class="ce" style="animation-delay:476ms" x="508" y="72" width="11" height="11" rx="2" fill="#1e1a14"/>
<rect class="ce" style="animation-delay:476ms" x="508" y="86" width="11" height="11" rx="2" fill="#1e1a14"/>
<rect class="ce" style="animation-delay:476ms" x="508" y="100" width="11" height="11" rx="2" fill="#1e1a14"/>
<rect class="ce" style="animation-delay:476ms" x="508" y="114" width="11" height="11" rx="2" fill="#1e1a14"/>
<rect class="ce" style="animation-delay:476ms" x="508" y="128" width="11" height="11" rx="2" fill="#1e1a14"/>
<rect class="ce" style="animation-delay:490ms" x="522" y="44" width="11" height="11" rx="2" fill="#1e1a14"/>
<rect class="ce" style="animation-delay:490ms" x="522" y="58" width="11" height="11" rx="2" fill="#1e1a14"/>
<rect class="ce" style="animation-delay:490ms" x="522" y="72" width="11" height="11" rx="2" fill="#1e1a14"/>
<rect class="ca" style="animation-delay:490ms" x="522" y="86" width="11" height="11" rx="2" fill="#3d2206"/>
<rect class="ce" style="animation-delay:490ms" x="522" y="100" width="11" height="11" rx="2" fill="#1e1a14"/>
<rect class="ce" style="animation-delay:490ms" x="522" y="114" width="11" height="11" rx="2" fill="#1e1a14"/>
<rect class="ce" style="animation-delay:490ms" x="522" y="128" width="11" height="11" rx="2" fill="#1e1a14"/>
<rect class="ce" style="animation-delay:504ms" x="536" y="44" width="11" height="11" rx="2" fill="#1e1a14"/>
<rect class="ce" style="animation-delay:504ms" x="536" y="58" width="11" height="11" rx="2" fill="#1e1a14"/>
<rect class="ce" style="animation-delay:504ms" x="536" y="72" width="11" height="11" rx="2" fill="#1e1a14"/>
<rect class="ce" style="animation-delay:504ms" x="536" y="86" width="11" height="11" rx="2" fill="#1e1a14"/>
<rect class="ce" style="animation-delay:504ms" x="536" y="100" width="11" height="11" rx="2" fill="#1e1a14"/>
<rect class="ce" style="animation-delay:504ms" x="536" y="114" width="11" height="11" rx="2" fill="#1e1a14"/>
<rect class="ce" style="animation-delay:504ms" x="536" y="128" width="11" height="11" rx="2" fill="#1e1a14"/>
<rect class="ce" style="animation-delay:518ms" x="550" y="44" width="11" height="11" rx="2" fill="#1e1a14"/>
<rect class="ca" style="animation-delay:518ms" x="550" y="58" width="11" height="11" rx="2" fill="#3d2206"/>
<rect class="ce" style="animation-delay:518ms" x="550" y="72" width="11" height="11" rx="2" fill="#1e1a14"/>
<rect class="ce" style="animation-delay:518ms" x="550" y="86" width="11" height="11" rx="2" fill="#1e1a14"/>
<rect class="ce" style="animation-delay:518ms" x="550" y="100" width="11" height="11" rx="2" fill="#1e1a14"/>
<rect class="ce" style="animation-delay:518ms" x="550" y="114" width="11" height="11" rx="2" fill="#1e1a14"/>
<rect class="ce" style="animation-delay:518ms" x="550" y="128" width="11" height="11" rx="2" fill="#1e1a14"/>
<rect class="ce" style="animation-delay:532ms" x="564" y="44" width="11" height="11" rx="2" fill="#1e1a14"/>
<rect class="ce" style="animation-delay:532ms" x="564" y="58" width="11" height="11" rx="2" fill="#1e1a14"/>
<rect class="ce" style="animation-delay:532ms" x="564" y="72" width="11" height="11" rx="2" fill="#1e1a14"/>
<rect class="ca" style="animation-delay:532ms" x="564" y="86" width="11" height="11" rx="2" fill="#3d2206"/>
<rect class="ca" style="animation-delay:532ms" x="564" y="100" width="11" height="11" rx="2" fill="#3d2206"/>
<rect class="ca" style="animation-delay:532ms" x="564" y="114" width="11" height="11" rx="2" fill="#3d2206"/>
<rect class="ce" style="animation-delay:532ms" x="564" y="128" width="11" height="11" rx="2" fill="#1e1a14"/>
<rect class="ce" style="animation-delay:546ms" x="578" y="44" width="11" height="11" rx="2" fill="#1e1a14"/>
<rect class="ce" style="animation-delay:546ms" x="578" y="58" width="11" height="11" rx="2" fill="#1e1a14"/>
<rect class="ce" style="animation-delay:546ms" x="578" y="72" width="11" height="11" rx="2" fill="#1e1a14"/>
<rect class="ce" style="animation-delay:546ms" x="578" y="86" width="11" height="11" rx="2" fill="#1e1a14"/>
<rect class="ce" style="animation-delay:546ms" x="578" y="100" width="11" height="11" rx="2" fill="#1e1a14"/>
<rect class="ce" style="animation-delay:546ms" x="578" y="114" width="11" height="11" rx="2" fill="#1e1a14"/>
<rect class="ce" style="animation-delay:546ms" x="578" y="128" width="11" height="11" rx="2" fill="#1e1a14"/>
<rect class="ce" style="animation-delay:560ms" x="592" y="44" width="11" height="11" rx="2" fill="#1e1a14"/>
<rect class="ce" style="animation-delay:560ms" x="592" y="58" width="11" height="11" rx="2" fill="#1e1a14"/>
<rect class="ca" style="animation-delay:560ms" x="592" y="72" width="11" height="11" rx="2" fill="#3d2206"/>
<rect class="ca" style="animation-delay:560ms" x="592" y="86" width="11" height="11" rx="2" fill="#3d2206"/>
<rect class="ca" style="animation-delay:560ms" x="592" y="100" width="11" height="11" rx="2" fill="#3d2206"/>
<rect class="ca" style="animation-delay:560ms" x="592" y="114" width="11" height="11" rx="2" fill="#3d2206"/>
<rect class="ce" style="animation-delay:560ms" x="592" y="128" width="11" height="11" rx="2" fill="#1e1a14"/>
<rect class="ce" style="animation-delay:574ms" x="606" y="44" width="11" height="11" rx="2" fill="#1e1a14"/>
<rect class="ca" style="animation-delay:574ms" x="606" y="58" width="11" height="11" rx="2" fill="#3d2206"/>
<rect class="ce" style="animation-delay:574ms" x="606" y="72" width="11" height="11" rx="2" fill="#1e1a14"/>
<rect class="ca" style="animation-delay:574ms" x="606" y="86" width="11" height="11" rx="2" fill="#3d2206"/>
<rect class="ca" style="animation-delay:574ms" x="606" y="100" width="11" height="11" rx="2" fill="#3d2206"/>
<rect class="ce" style="animation-delay:574ms" x="606" y="114" width="11" height="11" rx="2" fill="#1e1a14"/>
<rect class="ca" style="animation-delay:574ms" x="606" y="128" width="11" height="11" rx="2" fill="#3d2206"/>
<rect class="ca" style="animation-delay:588ms" x="620" y="44" width="11" height="11" rx="2" fill="#3d2206"/>
<rect class="ce" style="animation-delay:588ms" x="620" y="58" width="11" height="11" rx="2" fill="#1e1a14"/>
<rect class="ca" style="animation-delay:588ms" x="620" y="72" width="11" height="11" rx="2" fill="#3d2206"/>
<rect class="ca" style="animation-delay:588ms" x="620" y="86" width="11" height="11" rx="2" fill="#3d2206"/>
<rect class="ca" style="animation-delay:588ms" x="620" y="100" width="11" height="11" rx="2" fill="#3d2206"/>
<rect class="ce" style="animation-delay:588ms" x="620" y="114" width="11" height="11" rx="2" fill="#1e1a14"/>
<rect class="ce" style="animation-delay:588ms" x="620" y="128" width="11" height="11" rx="2" fill="#1e1a14"/>
<rect class="ce" style="animation-delay:602ms" x="634" y="44" width="11" height="11" rx="2" fill="#1e1a14"/>
<rect class="ce" style="animation-delay:602ms" x="634" y="58" width="11" height="11" rx="2" fill="#1e1a14"/>
<rect class="ca" style="animation-delay:602ms" x="634" y="72" width="11" height="11" rx="2" fill="#3d2206"/>
<rect class="ca" style="animation-delay:602ms" x="634" y="86" width="11" height="11" rx="2" fill="#8f4c0a"/>
<rect class="ca" style="animation-delay:602ms" x="634" y="100" width="11" height="11" rx="2" fill="#3d2206"/>
<rect class="ca" style="animation-delay:602ms" x="634" y="114" width="11" height="11" rx="2" fill="#8f4c0a"/>
<rect class="ca" style="animation-delay:602ms" x="634" y="128" width="11" height="11" rx="2" fill="#3d2206"/>
<rect class="ca" style="animation-delay:616ms" x="648" y="44" width="11" height="11" rx="2" fill="#e8812b"/>
<rect class="ca" style="animation-delay:616ms" x="648" y="58" width="11" height="11" rx="2" fill="#f0d5a0"/>
<rect class="ca" style="animation-delay:616ms" x="648" y="72" width="11" height="11" rx="2" fill="#3d2206"/>
<rect class="ca" style="animation-delay:616ms" x="648" y="86" width="11" height="11" rx="2" fill="#3d2206"/>
<rect class="ce" style="animation-delay:616ms" x="648" y="100" width="11" height="11" rx="2" fill="#1e1a14"/>
<rect class="ca" style="animation-delay:616ms" x="648" y="114" width="11" height="11" rx="2" fill="#3d2206"/>
<rect class="ca" style="animation-delay:616ms" x="648" y="128" width="11" height="11" rx="2" fill="#3d2206"/>
<rect class="ca" style="animation-delay:630ms" x="662" y="44" width="11" height="11" rx="2" fill="#3d2206"/>
<rect class="ca" style="animation-delay:630ms" x="662" y="58" width="11" height="11" rx="2" fill="#3d2206"/>
<rect class="ca" style="animation-delay:630ms" x="662" y="72" width="11" height="11" rx="2" fill="#3d2206"/>
<rect class="ca" style="animation-delay:630ms" x="662" y="86" width="11" height="11" rx="2" fill="#3d2206"/>
<rect class="ca" style="animation-delay:630ms" x="662" y="100" width="11" height="11" rx="2" fill="#3d2206"/>
<rect class="ca" style="animation-delay:630ms" x="662" y="114" width="11" height="11" rx="2" fill="#3d2206"/>
<rect class="ca" style="animation-delay:630ms" x="662" y="128" width="11" height="11" rx="2" fill="#3d2206"/>
<rect class="ca" style="animation-delay:644ms" x="676" y="44" width="11" height="11" rx="2" fill="#3d2206"/>
<rect class="ca" style="animation-delay:644ms" x="676" y="58" width="11" height="11" rx="2" fill="#3d2206"/>
<rect class="ca" style="animation-delay:644ms" x="676" y="72" width="11" height="11" rx="2" fill="#3d2206"/>
<rect class="ca" style="animation-delay:644ms" x="676" y="86" width="11" height="11" rx="2" fill="#3d2206"/>
<rect class="ca" style="animation-delay:644ms" x="676" y="100" width="11" height="11" rx="2" fill="#3d2206"/>
<rect class="ca" style="animation-delay:644ms" x="676" y="114" width="11" height="11" rx="2" fill="#3d2206"/>
<rect class="ca" style="animation-delay:644ms" x="676" y="128" width="11" height="11" rx="2" fill="#3d2206"/>
<rect class="ca" style="animation-delay:658ms" x="690" y="44" width="11" height="11" rx="2" fill="#3d2206"/>
<rect class="ca" style="animation-delay:658ms" x="690" y="58" width="11" height="11" rx="2" fill="#3d2206"/>
<rect class="ca" style="animation-delay:658ms" x="690" y="72" width="11" height="11" rx="2" fill="#3d2206"/>
<rect class="ca" style="animation-delay:658ms" x="690" y="86" width="11" height="11" rx="2" fill="#3d2206"/>
<rect class="ca" style="animation-delay:658ms" x="690" y="100" width="11" height="11" rx="2" fill="#3d2206"/>
<rect class="ca" style="animation-delay:658ms" x="690" y="114" width="11" height="11" rx="2" fill="#8f4c0a"/>
<rect class="ca" style="animation-delay:658ms" x="690" y="128" width="11" height="11" rx="2" fill="#f0d5a0"/>
<rect class="ca" style="animation-delay:672ms" x="704" y="44" width="11" height="11" rx="2" fill="#3d2206"/>
<rect class="ca" style="animation-delay:672ms" x="704" y="58" width="11" height="11" rx="2" fill="#8f4c0a"/>
<rect class="ca" style="animation-delay:672ms" x="704" y="72" width="11" height="11" rx="2" fill="#e8812b"/>
<rect class="ca" style="animation-delay:672ms" x="704" y="86" width="11" height="11" rx="2" fill="#3d2206"/>
<rect class="ca" style="animation-delay:672ms" x="704" y="100" width="11" height="11" rx="2" fill="#3d2206"/>
<rect class="ca" style="animation-delay:672ms" x="704" y="114" width="11" height="11" rx="2" fill="#e8812b"/>
<rect class="ca" style="animation-delay:672ms" x="704" y="128" width="11" height="11" rx="2" fill="#f0d5a0"/>
<rect class="ca" style="animation-delay:686ms" x="718" y="44" width="11" height="11" rx="2" fill="#3d2206"/>
<rect class="ce" style="animation-delay:686ms" x="718" y="58" width="11" height="11" rx="2" fill="#1e1a14"/>
<rect class="ce" style="animation-delay:686ms" x="718" y="72" width="11" height="11" rx="2" fill="#1e1a14"/>
<rect class="ca" style="animation-delay:686ms" x="718" y="86" width="11" height="11" rx="2" fill="#f0d5a0"/>
<rect class="ca" style="animation-delay:686ms" x="718" y="100" width="11" height="11" rx="2" fill="#8f4c0a"/>
<rect class="ca" style="animation-delay:686ms" x="718" y="114" width="11" height="11" rx="2" fill="#8f4c0a"/>
<rect class="ca" style="animation-delay:686ms" x="718" y="128" width="11" height="11" rx="2" fill="#8f4c0a"/>
<rect class="ca" style="animation-delay:700ms" x="732" y="44" width="11" height="11" rx="2" fill="#3d2206"/>
<rect class="ca" style="animation-delay:700ms" x="732" y="58" width="11" height="11" rx="2" fill="#8f4c0a"/>
<rect class="ca" style="animation-delay:700ms" x="732" y="72" width="11" height="11" rx="2" fill="#e8812b"/>
<rect class="ca" style="animation-delay:700ms" x="732" y="86" width="11" height="11" rx="2" fill="#e8812b"/>
<rect class="ca" style="animation-delay:700ms" x="732" y="100" width="11" height="11" rx="2" fill="#e8812b"/>
<rect class="ca" style="animation-delay:700ms" x="732" y="114" width="11" height="11" rx="2" fill="#3d2206"/>
<rect class="ca" style="animation-delay:700ms" x="732" y="128" width="11" height="11" rx="2" fill="#3d2206"/>
<rect class="ca" style="animation-delay:714ms" x="746" y="44" width="11" height="11" rx="2" fill="#3d2206"/>
<rect class="ca" style="animation-delay:714ms" x="746" y="58" width="11" height="11" rx="2" fill="#3d2206"/>
<rect class="ca" style="animation-delay:714ms" x="746" y="72" width="11" height="11" rx="2" fill="#3d2206"/>
<rect class="ca" style="animation-delay:714ms" x="746" y="86" width="11" height="11" rx="2" fill="#3d2206"/>
<rect class="ce" style="animation-delay:714ms" x="746" y="100" width="11" height="11" rx="2" fill="#1e1a14"/>
<rect class="ca" style="animation-delay:714ms" x="746" y="114" width="11" height="11" rx="2" fill="#3d2206"/>
<rect class="ce" style="animation-delay:714ms" x="746" y="128" width="11" height="11" rx="2" fill="#1e1a14"/>
</svg>